/* XPM */
static char * thg_xpm[] = {
"32 32 251 2",
"  	c None",
". 	c #2A3535",
"+ 	c #363A36",
"@ 	c #586D6C",
"# 	c #9FC8C6",
"$ 	c #5B7372",
"% 	c #4E6463",
"& 	c #8A958C",
"* 	c #91B7B5",
"= 	c #212A29",
"- 	c #5A716F",
"; 	c #3A4A48",
"> 	c #5F645F",
", 	c #8AA58B",
"' 	c #88ACA9",
") 	c #516665",
"! 	c #5C7572",
"~ 	c #4D6261",
"{ 	c #1F2739",
"] 	c #0F1A2E",
"^ 	c #101C2F",
"/ 	c #0F1B30",
"( 	c #99A199",
"_ 	c #87BE87",
": 	c #476151",
"< 	c #74948F",
"[ 	c #4C6156",
"} 	c #374140",
"| 	c #4B5563",
"1 	c #37404E",
"2 	c #3B4751",
"3 	c #2A3243",
"4 	c #111E34",
"5 	c #142138",
"6 	c #132038",
"7 	c #122037",
"8 	c #3C4A4A",
"9 	c #3F4D4D",
"0 	c #4D514D",
"a 	c #BEDABE",
"b 	c #77B777",
"c 	c #B2D0B2",
"d 	c #91B391",
"e 	c #80BB80",
"f 	c #ABC4AB",
"g 	c #47505D",
"h 	c #3F4951",
"i 	c #383F49",
"j 	c #262F40",
"k 	c #262E3D",
"l 	c #333B44",
"m 	c #293548",
"n 	c #15243E",
"o 	c #15223B",
"p 	c #313C3D",
"q 	c #6E8788",
"r 	c #3C4240",
"s 	c #7E867E",
"t 	c #C3DBC3",
"u 	c #90C390",
"v 	c #AFC7AF",
"w 	c #535853",
"x 	c #CAE1CA",
"y 	c #B1D0B1",
"z 	c #9EAE9E",
"A 	c #414541",
"B 	c #63863F",
"C 	c #506A3A",
"D 	c #344425",
"E 	c #3E4753",
"F 	c #2C3243",
"G 	c #2D353C",
"H 	c #222D40",
"I 	c #262E38",
"J 	c #282E34",
"K 	c #243049",
"L 	c #182845",
"M 	c #526464",
"N 	c #455051",
"O 	c #9CC59C",
"P 	c #7BB87B",
"Q 	c #76B676",
"R 	c #A6CFA6",
"S 	c #DFECDF",
"T 	c #A6B0A6",
"U 	c #484B48",
"V 	c #212221",
"W 	c #366A03",
"X 	c #5FA619",
"Y 	c #638A3E",
"Z 	c #141A0F",
"` 	c #383E49",
" .	c #243043",
"..	c #2B3138",
"+.	c #243048",
"@.	c #303842",
"#.	c #2B3238",
"$.	c #233552",
"%.	c #192A49",
"&.	c #667B7C",
"*.	c #576760",
"=.	c #82BC82",
"-.	c #A2BAA2",
";.	c #3A3F3A",
">.	c #494E49",
",.	c #3C403C",
"'.	c #203A05",
").	c #566F62",
"!.	c #7F9C9C",
"~.	c #698181",
"{.	c #3F4D4F",
"].	c #181D23",
"^.	c #0E182A",
"/.	c #131E2E",
"(.	c #121F35",
"_.	c #172134",
":.	c #121F33",
"<.	c #31363C",
"[.	c #28303A",
"}.	c #1A2B48",
"|.	c #353F3F",
"1.	c #4F5F61",
"2.	c #829985",
"3.	c #9FCB9F",
"4.	c #B3CDB3",
"5.	c #727A72",
"6.	c #2F3C32",
"7.	c #404B48",
"8.	c #3F4B4C",
"9.	c #5B6D6E",
"0.	c #323E40",
"a.	c #0F1727",
"b.	c #0D172A",
"c.	c #0E1726",
"d.	c #0B1220",
"e.	c #101720",
"f.	c #111720",
"g.	c #090D17",
"h.	c #060B14",
"i.	c #4F6161",
"j.	c #3D4749",
"k.	c #5D6561",
"l.	c #3B413D",
"m.	c #2A391D",
"n.	c #7BAF47",
"o.	c #70B130",
"p.	c #427618",
"q.	c #37423F",
"r.	c #3E484A",
"s.	c #667A7C",
"t.	c #596E6F",
"u.	c #3F4F50",
"v.	c #3B484B",
"w.	c #5F7575",
"x.	c #85A3A3",
"y.	c #83A0A0",
"z.	c #758E8E",
"A.	c #435151",
"B.	c #576B6B",
"C.	c #718989",
"D.	c #293438",
"E.	c #182A29",
"F.	c #25381E",
"G.	c #506E31",
"H.	c #7FBF3F",
"I.	c #5A9A1C",
"J.	c #326303",
"K.	c #274B02",
"L.	c #343F40",
"M.	c #3F4C4D",
"N.	c #435051",
"O.	c #637879",
"P.	c #677D7F",
"Q.	c #434F51",
"R.	c #384342",
"S.	c #3B4545",
"T.	c #3C4648",
"U.	c #4C595B",
"V.	c #586B6C",
"W.	c #3B4647",
"X.	c #162524",
"Y.	c #294E0D",
"Z.	c #639530",
"`.	c #6D9E3D",
" +	c #70B32D",
".+	c #4A890F",
"++	c #438007",
"@+	c #244602",
"#+	c #000000",
"$+	c #171C1D",
"%+	c #2E3536",
"&+	c #2C362D",
"*+	c #374C22",
"=+	c #3E6319",
"-+	c #2E5804",
";+	c #25420C",
">+	c #293924",
",+	c #323E3E",
"'+	c #1E301A",
")+	c #417E07",
"!+	c #3E6D16",
"~+	c #354334",
"{+	c #424C4E",
"]+	c #669C30",
"^+	c #4E831F",
"/+	c #607073",
"(+	c #414B4C",
"_+	c #343B3D",
":+	c #26311A",
"<+	c #A7DF71",
"[+	c #89C74B",
"}+	c #69AE24",
"|+	c #4F9A05",
"1+	c #3F6820",
"2+	c #303E2F",
"3+	c #346603",
"4+	c #478B06",
"5+	c #718288",
"6+	c #59636E",
"7+	c #434E5A",
"8+	c #253C0D",
"9+	c #3E5E2B",
"0+	c #ABC0D6",
"a+	c #738291",
"b+	c #515F6C",
"c+	c #364727",
"d+	c #9ED666",
"e+	c #80C041",
"f+	c #56941A",
"g+	c #465A45",
"h+	c #526260",
"i+	c #475156",
"j+	c #3F474F",
"k+	c #193002",
"l+	c #214006",
"m+	c #324752",
"n+	c #223139",
"o+	c #1A2727",
"p+	c #152312",
"q+	c #233435",
"r+	c #1E2D2B",
"s+	c #121F17",
"t+	c #394F24",
"u+	c #486F20",
"v+	c #3B5532",
"w+	c #B4CBE4",
"x+	c #566470",
"y+	c #2B3B4A",
"z+	c #212F3D",
"A+	c #1B292D",
"B+	c #162024",
"                                                                ",
"                                                                ",
"                                                                ",
"                                                                ",
"                                                                ",
"                                                                ",
"                                                                ",
"                                                        .       ",
"                                                    + @ # $ %   ",
"                                                    & * = - ;   ",
"                                                  > , ' ) ! ~   ",
"                            { ] ^ / /             ( _ : < [ }   ",
"                      | 1 2 3 4 5 6 6 7   8 9   0 a b c d e f   ",
"                      g h i j k l m n o p q r s t u v w x y z A ",
"  B C D               E F G H I J K L   M N O P Q R S T U V     ",
"    W X Y Z           `  ...+.@.#.$.%.  &.*.Q Q =.-.;.>.,.      ",
"      '.).!.~.{.].  ^./.(._.:.<.[.}.  |.1.2.3.4.5.              ",
"        6.7.8.9.~.0.a.b.c.d.e.f.g.h.  i.j.k.l.                  ",
"      m.n.o.p.q.r.s.t.u.v.w.x.y.z.A.B.C.D.E.F.                  ",
"      G.H.I.J.K.L.M.N.O.P.Q.R.S.T.U.V.W.X.Y.Z.                  ",
"      `. +.+++@+  #+$+%+&+*+=+-+;+>+,+'+)+!+~+{+                ",
"      ]+^+/+(+_+    #+:+<+[+}+|+1+2+  3+4+5+6+7+                ",
"      8+9+0+a+b+      c+d+e+f+g+h+i+j+k+l+m+n+o+                ",
"        p+q+r+s+        t+u+v+w+x+y+z+                          ",
"                              A+B+                              ",
"                                                                ",
"                                                                ",
"                                                                ",
"                                                                ",
"                                                                ",
"                                                                ",
"                                                                "};
