<?xml version="1.0" encoding="UTF-8"?>
<svg width="478px" height="336px" viewBox="0 0 478 336" version="1.1" xmlns="http://www.w3.org/2000/svg" xmlns:xlink="http://www.w3.org/1999/xlink">
    <!-- Generator: Sketch 49.3 (51167) - http://www.bohemiancoding.com/sketch -->
    <title>topic-icon</title>
    <desc>Created with Sketch.</desc>
    <defs></defs>
    <g id="Page-1" stroke="none" stroke-width="1" fill="none" fill-rule="evenodd">
        <g id="topic-icon" fill-rule="nonzero">
            <path d="M202.825,98.205 C201.87,98.163 200.908,97.937 199.988,97.508 C199.721,97.384 172.302,84.826 138.333,82.865 C103.854,80.843 58.473,91.47 58.018,91.577 C53.99,92.531 49.948,90.032 48.997,85.999 C48.046,81.968 50.543,77.929 54.575,76.978 C56.518,76.52 102.59,65.802 139.197,67.89 C176.15,70.023 205.109,83.346 206.324,83.912 C210.078,85.662 211.703,90.124 209.954,93.878 C208.633,96.713 205.766,98.334 202.825,98.205 Z" id="Shape" fill="#333333"></path>
            <path d="M202.825,168.039 C201.87,167.997 200.908,167.771 199.988,167.342 C199.721,167.218 172.302,154.66 138.333,152.699 C103.854,150.677 58.473,161.304 58.018,161.411 C53.99,162.365 49.948,159.866 48.997,155.833 C48.046,151.802 50.543,147.763 54.575,146.812 C56.518,146.354 102.59,135.636 139.197,137.724 C176.15,139.857 205.109,153.18 206.324,153.746 C210.078,155.496 211.703,159.958 209.954,163.712 C208.633,166.547 205.766,168.167 202.825,168.039 Z" id="Shape" fill="#333333"></path>
            <path d="M202.825,237.039 C201.87,236.997 200.908,236.771 199.988,236.342 C199.721,236.218 172.302,223.66 138.333,221.699 C103.854,219.677 58.473,230.304 58.018,230.411 C53.99,231.365 49.948,228.866 48.997,224.833 C48.046,220.802 50.543,216.763 54.575,215.812 C56.518,215.354 102.59,204.636 139.197,206.724 C176.15,208.857 205.109,222.18 206.324,222.746 C210.078,224.496 211.703,228.958 209.954,232.712 C208.633,235.547 205.766,237.167 202.825,237.039 Z" id="Shape" fill="#333333"></path>
            <path d="M466.343,36.713 C465.447,36.713 464.5,36.887 463.5,37.181 L463.5,27.123 C463.5,25.2050781 442.624023,14.8828125 428.753906,9.85742188 C428.753906,19.2861328 428.753906,25.2050781 428.753906,25.2050781 C428.753906,25.2050781 437.214844,28.3154297 448.5,34.11 L448.5,292.172 C425.53,284.504 390.829,274.804 351.52,274.804 C299.639,274.804 255.8,291.7 239.141,299.105 C222.482,291.701 178.457,274.804 126.576,274.804 C87.265,274.804 52.475,284.504 30.583,292.426 C30.3483333,292.380667 29.9876667,205.275333 29.501,31.11 C32.501,29.28 40.859,25.605 58.973,22.235 C77.899,18.714 102.017,16.775 126.609,16.775 C183.765,16.775 230.786,40.716 231.254,40.958 L239.141,45.375 C250.502729,35.865 259.996745,29.781 267.623047,27.123 L267.623047,9.85742188 C252.804688,16.353125 238.519,27.123 238.519,27.123 C238.519,27.123 188.741,1.186 126.753,1.186 C64.765,1.186 14.5,12.799 14.5,27.123 L14.5,37.181 C13.5,36.886 12.553,36.713 11.657,36.713 C5.656,36.713 0.5,43.728 0.5,52.301 L0.5,311.912 C0.5,320.486 7.515,327.5 16.088,327.5 C16.088,327.5 89.872,316.069 122.088,316.069 C138.679,316.069 169.051,319.101 194.61,322.042 C194.577,329.823 214.408,335.814 238.872,335.814 C263.335,335.814 283.167,329.824 283.167,322.434 C308.676,319.05 338.931,316.069 355.912,316.069 C389.167,316.069 461.912,327.5 461.912,327.5 C470.486,327.5 477.5,320.485 477.5,311.912 L477.5,52.301 C477.5,43.728 472.345,36.713 466.343,36.713 Z" id="Shape" fill="#333333"></path>
            <path d="M415.550483,226 L415.550483,7.71484375 C394.949219,2.75195313 376.334886,0 336.560122,0 C305.004304,0 290.879079,2.86249144 280,5.3145124 L280,226 L347.537364,169.928541 L415.550483,226 Z M298.186356,73.7102901 L332.784953,68.681633 L348.257642,37.3309326 L363.730331,68.6829619 L398.328927,73.711619 L373.293284,98.1160217 L379.205677,132.573752 L348.258971,116.305036 L317.312264,132.573752 L323.221999,98.1146928 L298.186356,73.7102901 Z" id="Shape" fill="#ED2931"></path>
            <path d="M239,272 C234.858,272 231.5,268.643 231.5,264.5 L231.5,72.5 C231.5,68.358 234.858,65 239,65 C243.143,65 246.5,68.358 246.5,72.5 L246.5,264.5 C246.5,268.643 243.143,272 239,272 Z" id="Shape" fill="#333333"></path>
        </g>
    </g>
</svg>